/* XPM */
static char * volume_xpm[] = {
"28 14 2 1",
".	c #FFFFFF",
"+	c #000000",
"..........................++",
"........................++++",
"......................++++++",
"....................++++++++",
"..................++++++++++",
"................++++++++++++",
"..............++++++++++++++",
"............++++++++++++++++",
"..........++++++++++++++++++",
"........++++++++++++++++++++",
"......++++++++++++++++++++++",
"....++++++++++++++++++++++++",
"..++++++++++++++++++++++++++",
"++++++++++++++++++++++++++++"};
